<svg width="16" height="9" viewBox="0 0 16 9" fill="#ffffff" xmlns="http://www.w3.org/2000/svg">
                                                <path d="M9.51939 0.182509C9.45539 0.239868 9.40459 0.308109 9.36992 0.383297C9.33525 0.458485 9.3174 0.539131 9.3174 0.620583C9.3174 0.702035 9.33525 0.782681 9.36992 0.857868C9.40459 0.933056 9.45539 1.0013 9.51939 1.05866L12.6607 3.89688H0.682883C0.501771 3.89688 0.328078 3.96188 0.200012 4.0776C0.0719466 4.19331 0 4.35024 0 4.51388C0 4.67752 0.0719466 4.83446 0.200012 4.95017C0.328078 5.06588 0.501771 5.13089 0.682883 5.13089H12.647L9.51939 7.9506C9.39221 8.06621 9.32082 8.22259 9.32082 8.38559C9.32082 8.5486 9.39221 8.70498 9.51939 8.82058C9.64734 8.9355 9.82042 9 10.0008 9C10.1812 9 10.3543 8.9355 10.4823 8.82058L14.8254 4.89643C14.8839 4.84575 14.9304 4.78492 14.9621 4.71759C14.9939 4.65026 15.0103 4.57782 15.0103 4.50463C15.0103 4.43143 14.9939 4.359 14.9621 4.29167C14.9304 4.22434 14.8839 4.16351 14.8254 4.11283L10.4891 0.182509C10.4256 0.124678 10.3501 0.0787766 10.2669 0.0474521C10.1836 0.0161276 10.0944 0 10.0042 0C9.91409 0 9.82484 0.0161276 9.74162 0.0474521C9.65841 0.0787766 9.58288 0.124678 9.51939 0.182509Z" fill="white" stroke-width="1px" fill-opacity="1" stroke-opacity="1"></path>
                                            </svg>